<svg width="66" height="50" viewBox="0 0 66 50" fill="none" xmlns="http://www.w3.org/2000/svg">
<g clip-path="url(#clip0_129_51)">
<path d="M39.3113 35.4999L26.7285 50.4999V5.5C26.7285 2.7 26.7285 1 29.2451 0H60.9537C63.9735 0 60.9537 12 58.9404 12H43.8411C36.9961 16 40.989 19.6666 43.8411 20.9999H54.4106C58.0345 20.5999 58.2694 23.4999 57.9338 24.9999C57.9338 31.3999 55.9206 34.4999 54.4106 34.4999L39.3113 35.4999Z" fill="#0066FF"/>
<path d="M11.5828 11.5H-0.496689L-1 43H24.6689V33.5H11.5828V11.5Z" fill="#0066FF"/>
<path d="M14.288 34.192C13.136 34.192 12.2133 33.8293 11.52 33.104C10.8373 32.368 10.496 31.2693 10.496 29.808C10.496 28.3147 10.7947 27.2107 11.392 26.496C12 25.7707 12.8907 25.408 14.064 25.408C15.2373 25.408 16.1227 25.7707 16.72 26.496C17.328 27.2107 17.632 28.3147 17.632 29.808V30.352H12.832V30.88C12.832 31.3493 12.976 31.728 13.264 32.016C13.552 32.2933 13.9467 32.432 14.448 32.432C14.864 32.432 15.216 32.3413 15.504 32.16C15.8027 31.968 16.0747 31.7067 16.32 31.376L17.456 32.704C17.1147 33.1627 16.6773 33.5253 16.144 33.792C15.6213 34.0587 15.0027 34.192 14.288 34.192ZM14.064 27.088C13.2427 27.088 12.832 27.568 12.832 28.528V29.04H15.296V28.528C15.296 27.568 14.8853 27.088 14.064 27.088ZM21.053 34C20.285 34 19.725 33.8293 19.373 33.488C19.0317 33.1467 18.861 32.6027 18.861 31.856V27.344H17.805V25.6H18.317C18.6157 25.6 18.8183 25.536 18.925 25.408C19.0317 25.28 19.085 25.072 19.085 24.784V23.328H21.101V25.6H22.573V27.344H21.101V32.256H22.413V34H21.053ZM24.6959 22C25.1439 22 25.4692 22.1067 25.6719 22.32C25.8745 22.5227 25.9759 22.8 25.9759 23.152V23.568C25.9759 24.176 25.8319 24.7573 25.5439 25.312C25.2559 25.856 24.8665 26.3147 24.3759 26.688H22.9999C23.3412 26.368 23.6292 26.048 23.8639 25.728C24.1092 25.3973 24.2905 25.0347 24.4079 24.64C23.7465 24.544 23.4159 24.1867 23.4159 23.568V23.152C23.4159 22.8 23.5172 22.5227 23.7199 22.32C23.9225 22.1067 24.2479 22 24.6959 22ZM63.5421 32.608H63.2861C63.2328 32.832 63.1475 33.04 63.0301 33.232C62.9128 33.424 62.7688 33.5947 62.5981 33.744C62.4275 33.8827 62.2355 33.9893 62.0221 34.064C61.8088 34.1493 61.5901 34.192 61.3661 34.192C60.3848 34.192 59.6701 33.8293 59.2221 33.104C58.7741 32.368 58.5501 31.2693 58.5501 29.808C58.5501 28.3467 58.7741 27.248 59.2221 26.512C59.6808 25.776 60.3955 25.408 61.3661 25.408C61.5901 25.408 61.8088 25.4507 62.0221 25.536C62.2355 25.6107 62.4275 25.7227 62.5981 25.872C62.7688 26.0107 62.9128 26.176 63.0301 26.368C63.1475 26.56 63.2328 26.768 63.2861 26.992H63.5421V22.16H65.7821V34H63.5421V32.608ZM62.2621 32.368C62.6675 32.368 62.9821 32.2773 63.2061 32.096C63.4301 31.904 63.5421 31.6213 63.5421 31.248V28.352C63.5421 27.9787 63.4301 27.7013 63.2061 27.52C62.9821 27.328 62.6675 27.232 62.2621 27.232C61.8461 27.232 61.5101 27.3653 61.2541 27.632C61.0088 27.888 60.8861 28.256 60.8861 28.736V30.864C60.8861 31.344 61.0088 31.7173 61.2541 31.984C61.5101 32.24 61.8461 32.368 62.2621 32.368Z" fill="black"/>
<path d="M29.9148 34.192C28.5388 34.192 27.4401 33.696 26.6187 32.704L27.9468 31.376C28.4588 32.1013 29.1308 32.464 29.9628 32.464C30.6774 32.464 31.0347 32.176 31.0347 31.6C31.0347 31.376 30.9761 31.2053 30.8588 31.088C30.7521 30.96 30.5708 30.8693 30.3148 30.816L29.4668 30.656C28.5601 30.4853 27.9041 30.2027 27.4987 29.808C27.1041 29.4027 26.9067 28.832 26.9067 28.096C26.9067 27.2107 27.1681 26.544 27.6908 26.096C28.2134 25.6373 28.9761 25.408 29.9787 25.408C30.6508 25.408 31.2321 25.5147 31.7228 25.728C32.2241 25.9307 32.6614 26.2453 33.0348 26.672L31.7548 27.984C31.2748 27.4187 30.6881 27.136 29.9948 27.136C29.3441 27.136 29.0187 27.424 29.0187 28C29.0187 28.2347 29.0774 28.4107 29.1948 28.528C29.3121 28.6453 29.5041 28.7307 29.7708 28.784L30.6508 28.944C31.5361 29.104 32.1708 29.376 32.5548 29.76C32.9494 30.1333 33.1468 30.672 33.1468 31.376C33.1468 32.2827 32.8641 32.9813 32.2988 33.472C31.7334 33.952 30.9388 34.192 29.9148 34.192ZM36.7786 34V22.832H43.4986V24.832H39.0666V27.36H42.8266V29.344H39.0666V34H36.7786ZM47.2761 34.192C46.1241 34.192 45.2015 33.8293 44.5081 33.104C43.8255 32.368 43.4841 31.2693 43.4841 29.808C43.4841 28.3147 43.7828 27.2107 44.3801 26.496C44.9881 25.7707 45.8788 25.408 47.0521 25.408C48.2255 25.408 49.1108 25.7707 49.7081 26.496C50.3161 27.2107 50.6201 28.3147 50.6201 29.808V30.352H45.8201V30.88C45.8201 31.3493 45.9641 31.728 46.2521 32.016C46.5401 32.2933 46.9348 32.432 47.4361 32.432C47.8521 32.432 48.2041 32.3413 48.4921 32.16C48.7908 31.968 49.0628 31.7067 49.3081 31.376L50.4441 32.704C50.1028 33.1627 49.6655 33.5253 49.1321 33.792C48.6095 34.0587 47.9908 34.192 47.2761 34.192ZM47.0521 27.088C46.2308 27.088 45.8201 27.568 45.8201 28.528V29.04H48.2841V28.528C48.2841 27.568 47.8735 27.088 47.0521 27.088ZM54.7611 34.192C53.6091 34.192 52.6865 33.8293 51.9931 33.104C51.3105 32.368 50.9691 31.2693 50.9691 29.808C50.9691 28.3147 51.2678 27.2107 51.8651 26.496C52.4731 25.7707 53.3638 25.408 54.5371 25.408C55.7105 25.408 56.5958 25.7707 57.1931 26.496C57.8011 27.2107 58.1051 28.3147 58.1051 29.808V30.352H53.3051V30.88C53.3051 31.3493 53.4491 31.728 53.7371 32.016C54.0251 32.2933 54.4198 32.432 54.9211 32.432C55.3371 32.432 55.6891 32.3413 55.9771 32.16C56.2758 31.968 56.5478 31.7067 56.7931 31.376L57.9291 32.704C57.5878 33.1627 57.1505 33.5253 56.6171 33.792C56.0945 34.0587 55.4758 34.192 54.7611 34.192ZM54.5371 27.088C53.7158 27.088 53.3051 27.568 53.3051 28.528V29.04H55.7691V28.528C55.7691 27.568 55.3585 27.088 54.5371 27.088Z" fill="white"/>
</g>
<defs>
<clipPath id="clip0_129_51">
<rect width="66" height="50" fill="white"/>
</clipPath>
</defs>
</svg>
