<?xml version="1.0" standalone="no"?>
<!DOCTYPE svg PUBLIC "-//W3C//DTD SVG 20010904//EN"
 "http://www.w3.org/TR/2001/REC-SVG-20010904/DTD/svg10.dtd">
<svg version="1.0" xmlns="http://www.w3.org/2000/svg"
 width="672.000000pt" height="672.000000pt" viewBox="0 0 672.000000 672.000000"
 preserveAspectRatio="xMidYMid meet">
<metadata>
Created by potrace 1.14, written by Peter Selinger 2001-2017
</metadata>
<g transform="translate(0.000000,672.000000) scale(0.100000,-0.100000)"
fill="#000000" stroke="none">
<path d="M4539 6516 c-2 -2 -33 -6 -69 -10 -59 -5 -95 -10 -155 -21 -266 -49
-603 -179 -699 -269 -46 -42 -57 -90 -34 -140 31 -70 97 -69 241 2 152 75 357
150 461 167 12 2 35 7 51 10 65 13 84 15 200 21 66 4 129 6 140 6 32 0 181
-12 206 -17 13 -3 38 -7 54 -10 446 -86 882 -347 1123 -671 29 -38 56 -74 61
-80 10 -13 58 -87 83 -129 36 -62 117 -232 141 -300 52 -142 99 -336 112 -460
3 -33 8 -73 10 -90 11 -79 5 -361 -9 -480 -11 -91 -14 -109 -31 -190 -10 -44
-19 -93 -22 -110 -3 -16 -5 -32 -6 -35 0 -3 3 -28 7 -56 9 -64 44 -100 101
-109 46 -6 79 7 107 45 26 36 73 281 98 517 8 82 6 453 -4 513 -3 19 -9 58
-12 85 -10 83 -11 89 -22 130 -6 22 -14 54 -18 70 -4 17 -8 35 -10 40 -2 6 -8
30 -14 54 -6 24 -17 56 -26 72 -8 16 -12 29 -9 29 3 0 -1 13 -10 30 -8 16 -16
32 -16 35 -1 34 -128 281 -190 371 -16 23 -29 47 -29 52 0 6 -3 12 -7 14 -5 2
-41 46 -80 98 -98 128 -232 276 -314 345 -140 119 -249 194 -374 259 -49 25
-95 50 -100 54 -6 5 -19 11 -30 14 -11 4 -65 22 -120 41 -133 46 -224 70 -310
82 -22 3 -56 8 -75 11 -44 7 -394 16 -401 10z"/>
<path d="M2025 6492 c-1 -2 -41 -5 -87 -7 -45 -2 -83 -5 -83 -5 0 -1 -18 -3
-40 -6 -34 -3 -132 -19 -185 -30 -21 -4 -126 -41 -174 -61 -142 -60 -455 -235
-511 -285 -8 -7 -29 -24 -46 -38 -70 -55 -117 -98 -154 -140 -22 -25 -44 -48
-49 -51 -14 -11 -34 -103 -29 -132 10 -52 87 -85 150 -63 17 6 64 41 105 77
107 97 169 150 212 184 22 17 46 37 55 46 19 18 127 89 136 89 3 0 4 -19 1
-42 -3 -24 -8 -70 -12 -103 -3 -33 -8 -71 -10 -85 -3 -14 -7 -113 -11 -220 -6
-194 -6 -195 21 -270 123 -340 186 -595 183 -750 -1 -84 -29 -158 -98 -260
-150 -222 -396 -284 -649 -163 -131 63 -253 211 -275 332 -3 19 -8 38 -10 41
-3 4 -7 25 -11 46 -3 22 -7 49 -9 60 -15 94 -29 261 -39 469 -7 126 -38 154
-158 143 -24 -2 -76 -58 -81 -88 -8 -42 -19 -84 -26 -95 -3 -5 -6 -14 -8 -20
-3 -17 -15 -59 -48 -180 -18 -64 -44 -176 -50 -212 -8 -55 -18 -110 -22 -128
-9 -38 -12 -311 -3 -351 4 -21 11 -59 14 -84 8 -68 26 -220 31 -260 37 -321
145 -605 380 -996 120 -199 316 -489 355 -524 3 -3 21 -25 40 -50 19 -25 41
-52 50 -60 8 -8 44 -49 80 -90 127 -146 366 -390 566 -577 183 -171 209 -195
344 -308 52 -44 97 -82 100 -85 9 -9 66 -54 94 -75 15 -11 37 -28 49 -39 21
-18 271 -207 313 -236 92 -64 355 -240 359 -240 4 0 26 -13 50 -30 24 -16 48
-30 53 -30 6 0 12 -4 14 -8 3 -9 343 -229 395 -256 44 -22 98 -27 143 -11 48
17 457 248 470 265 3 4 16 13 29 20 14 7 30 17 35 22 6 5 73 53 149 108 134
97 462 349 542 417 22 19 45 37 50 41 12 9 324 261 345 279 76 64 160 133 163
133 16 0 365 344 466 459 318 365 526 754 559 1051 13 114 6 369 -13 475 -19
106 -85 293 -107 303 -5 2 -8 8 -8 13 0 5 -29 48 -65 96 -80 108 -166 278
-200 397 -28 97 -37 219 -24 293 5 27 11 57 13 68 8 42 -50 85 -115 86 -37 1
-83 -5 -124 -15 -5 -2 -23 -6 -40 -10 -175 -44 -337 -156 -453 -313 -25 -35
-48 -63 -51 -64 -3 0 -42 -2 -86 -4 -44 -2 -100 -8 -125 -14 -25 -6 -54 -14
-65 -16 -11 -3 -52 -21 -92 -40 -80 -40 -133 -93 -236 -235 -34 -47 -64 -87
-67 -90 -3 -3 -20 -34 -39 -70 -79 -151 -106 -172 -226 -176 -38 -1 -74 -2
-80 -3 -5 -1 -26 -16 -47 -34 -25 -22 -43 -51 -58 -96 -11 -35 -19 -69 -16
-76 2 -7 2 -16 -1 -19 -13 -12 -4 -158 13 -236 3 -14 8 -36 11 -50 20 -112
113 -284 189 -349 171 -148 295 -211 444 -225 159 -16 148 -17 184 15 19 16
35 38 35 47 0 9 1 31 2 49 0 33 -20 82 -43 100 -7 6 -47 16 -88 23 -267 45
-445 183 -501 390 -14 54 -19 179 -8 201 5 9 25 20 46 24 90 16 233 100 300
175 26 28 81 134 87 166 12 63 97 172 171 220 57 36 158 70 237 79 48 6 142 8
164 4 20 -3 34 2 34 12 0 20 91 140 163 216 63 66 162 143 185 143 5 0 17 -30
27 -67 56 -208 211 -541 291 -628 11 -11 27 -34 36 -51 21 -37 73 -213 82
-277 4 -27 10 -59 13 -70 3 -12 7 -94 8 -181 3 -143 0 -168 -22 -250 -14 -50
-31 -116 -39 -146 -27 -100 -119 -265 -233 -415 -45 -59 -196 -239 -236 -281
-189 -199 -377 -378 -575 -549 -30 -26 -67 -58 -82 -70 -14 -13 -86 -72 -160
-131 -73 -59 -137 -112 -143 -116 -5 -5 -28 -22 -50 -38 -22 -16 -45 -33 -50
-38 -6 -5 -46 -35 -90 -67 -44 -32 -82 -61 -85 -64 -3 -4 -24 -19 -48 -34 -23
-15 -50 -34 -60 -42 -9 -8 -75 -55 -147 -104 -71 -49 -135 -94 -142 -100 -7
-6 -14 -11 -17 -11 -3 0 -33 -19 -68 -43 -155 -105 -351 -217 -380 -217 -36 0
-427 248 -717 454 -62 45 -133 95 -156 111 -24 17 -58 41 -76 55 -18 14 -57
44 -88 67 -31 23 -60 46 -66 50 -191 151 -246 194 -265 209 -30 25 -242 205
-256 219 -7 5 -47 42 -90 80 -171 152 -455 446 -570 590 -27 33 -73 89 -102
125 -69 83 -71 85 -112 145 -19 28 -37 52 -40 55 -8 8 -104 155 -105 160 0 3
-13 24 -28 47 -111 174 -252 477 -325 703 -31 95 -70 243 -78 290 -2 14 -7 41
-10 60 -3 19 -8 49 -10 65 -2 17 -6 41 -9 55 -9 38 -13 330 -5 325 4 -3 13
-19 21 -37 41 -103 215 -308 294 -348 17 -8 32 -17 35 -20 20 -20 180 -85 180
-74 0 4 7 0 16 -7 26 -21 271 -18 354 4 99 27 169 57 231 100 65 44 161 141
208 210 32 47 100 183 105 209 1 7 5 22 9 33 45 139 40 340 -14 532 -11 40
-33 105 -49 144 -55 131 -78 215 -105 377 -8 49 -9 220 -1 282 25 190 143 403
252 455 104 49 390 61 589 25 101 -19 134 -28 225 -63 134 -51 333 -225 480
-421 116 -155 194 -203 405 -253 48 -11 124 -16 325 -20 l215 -5 50 -29 c55
-33 69 -41 136 -83 l47 -28 -3 -102 c-4 -119 -22 -195 -71 -292 -75 -151 -208
-261 -393 -328 -164 -59 -325 -51 -489 25 -35 16 -69 35 -76 42 -7 7 -13 40
-13 78 -1 113 -38 179 -99 181 -70 2 -209 -103 -254 -192 -27 -53 -36 -145
-18 -179 26 -48 63 -65 144 -68 70 -2 83 -6 206 -67 73 -36 126 -66 118 -67
-8 0 -22 -2 -30 -3 -8 -2 -39 -6 -69 -10 -29 -4 -57 -8 -61 -11 -3 -2 -17 -6
-31 -9 -96 -18 -286 -99 -354 -149 -72 -53 -152 -148 -188 -221 -20 -42 -37
-81 -37 -86 0 -6 -4 -10 -10 -10 -5 0 -10 -7 -10 -15 0 -9 -7 -26 -14 -38 -17
-24 -82 -215 -90 -262 -3 -16 -11 -57 -17 -90 -12 -64 -16 -256 -6 -320 28
-202 115 -379 255 -524 93 -97 164 -103 208 -20 27 53 18 99 -37 189 -69 114
-83 142 -113 235 -24 77 -29 96 -43 175 -8 49 -8 205 1 265 4 28 9 57 10 65 1
9 5 21 10 28 4 6 5 12 2 12 -3 0 2 19 10 43 9 23 17 48 18 55 1 7 8 18 14 24
7 7 12 18 12 24 0 25 64 130 100 164 52 50 90 82 130 110 19 14 37 28 40 31
19 22 105 49 170 54 192 13 308 30 356 50 49 20 222 141 259 180 26 28 50 40
101 50 30 7 156 72 217 112 71 47 237 207 237 228 0 7 7 18 15 25 22 19 88
155 113 235 32 104 34 120 37 244 3 165 -25 308 -86 436 -31 65 -84 130 -99
120 -10 -6 -110 -14 -242 -19 -48 -2 -90 -6 -95 -8 -12 -6 -287 -2 -368 6
-135 12 -162 21 -253 79 -69 45 -304 288 -382 396 -54 73 -134 131 -252 182
-103 44 -110 47 -143 55 -16 4 -34 8 -40 10 -5 1 -23 5 -40 8 -16 3 -41 9 -55
12 -26 7 -448 12 -455 6z"/>
</g>
</svg>
