<svg width="54" height="54" viewBox="0 0 54 54" fill="none" xmlns="http://www.w3.org/2000/svg">
<circle cx="27" cy="27" r="27" fill="#FFC703"/>
<path d="M27 51C13.7294 51 3 40.2706 3 27C3 13.7294 13.7294 3 27 3C40.2706 3 51 13.7294 51 27C51 40.2706 40.1294 51 27 51ZM27 5.82353C15.2824 5.82353 5.82353 15.2824 5.82353 27C5.82353 38.7176 15.2824 48.1765 27 48.1765C38.7176 48.1765 48.1765 38.7176 48.1765 27C48.1765 15.2824 38.5765 5.82353 27 5.82353Z" fill="white"/>
<path d="M16.4419 39.7546C14.1105 40.8517 11.9162 41.8117 11.2305 43.4574C15.0698 46.2003 24.2848 51.2746 30.4305 49.6289C36.5762 47.9831 41.6769 44.646 43.459 43.1831C42.499 40.9888 39.7562 39.8917 37.1505 38.9317C34.9562 38.1089 32.4876 37.1489 32.4876 35.9146V33.7203C33.3105 33.0346 34.5448 31.6631 34.819 29.4688C35.6419 28.9203 36.6019 27.686 36.6019 25.9031C36.6019 25.0803 36.3276 24.3946 36.0533 23.9831C36.3276 23.0231 36.739 21.1031 36.739 18.7717C36.739 15.0689 34.5448 12.0517 31.939 11.5031C30.8419 10.2689 28.7848 9.85742 27.139 9.85742C21.2419 9.85742 17.539 13.4231 17.539 18.7717C17.539 20.4174 17.8133 22.4746 18.0876 23.5717C17.8133 24.1203 17.4019 24.9431 17.4019 25.9031C17.4019 27.5489 18.499 28.7831 19.1848 29.4688C19.459 31.6631 20.8305 33.1717 21.6533 33.8574V35.9146C21.6533 37.4231 18.7733 38.6574 16.4419 39.7546Z" fill="white"/>
</svg>
