<svg width="478" height="127" viewBox="0 0 478 127" fill="none" xmlns="http://www.w3.org/2000/svg">
<path d="M2.49219 27.3008C3.87728 27.3382 5.33724 27.5067 6.87207 27.8062C8.4069 28.1056 10.1289 28.4613 12.0381 28.873C13.9473 29.2848 16.0623 29.6966 18.3833 30.1084C20.7417 30.5202 23.4183 30.8384 26.4131 31.063C27.9854 31.1753 29.3517 31.2689 30.5122 31.3438C31.7101 31.4186 32.7957 31.4561 33.769 31.4561C34.8921 31.4561 35.9215 31.4373 36.8574 31.3999C37.7933 31.325 38.7104 31.2502 39.6089 31.1753C40.5448 31.063 41.5181 30.9881 42.5288 30.9507C43.5396 30.8758 44.6813 30.8384 45.9541 30.8384C47.751 30.8384 48.9115 31.0068 49.4355 31.3438C49.9596 31.6807 50.2217 32.1299 50.2217 32.6914C50.2217 33.2904 49.9596 33.7209 49.4355 33.9829C48.9489 34.2075 48.2563 34.3573 47.3579 34.4321C46.6466 34.507 45.8231 34.5819 44.8872 34.6567C43.9888 34.6942 43.109 34.769 42.248 34.8813C41.5368 34.9937 40.8255 35.1621 40.1143 35.3867C39.4404 35.5739 38.804 35.8921 38.2051 36.3413C37.6061 36.7531 37.082 37.3521 36.6328 38.1382C36.1836 38.8869 35.8467 39.8789 35.6221 41.1143C35.2852 42.986 34.9295 45.4567 34.5552 48.5264C34.1808 51.596 33.8252 54.9277 33.4883 58.5215C33.1514 62.1152 32.8332 65.84 32.5337 69.6958C32.2342 73.5516 31.9722 77.2202 31.7476 80.7017C31.5229 84.1831 31.3358 87.3464 31.186 90.1914C31.0737 93.0365 31.0176 95.2264 31.0176 96.7612C31.0176 99.1945 31.3358 100.954 31.9722 102.04C32.646 103.088 33.6193 103.818 34.8921 104.229C35.2664 104.342 35.8092 104.454 36.5205 104.566C37.2318 104.679 38.0366 104.772 38.9351 104.847C39.8709 104.922 40.863 104.997 41.9111 105.072C42.9967 105.109 44.0824 105.128 45.168 105.128C48.3499 105.128 51.0078 104.866 53.1416 104.342C55.2754 103.818 56.9787 103.013 58.2515 101.927C59.5617 100.842 60.4788 99.494 61.0029 97.8843C61.5645 96.2746 61.8452 94.3654 61.8452 92.1567C61.8452 90.2101 61.6955 88.3009 61.396 86.4292C61.0965 84.52 60.7596 82.7606 60.3853 81.1509C60.0109 79.5412 59.674 78.0999 59.3745 76.8271C59.075 75.5544 58.9253 74.5623 58.9253 73.8511C58.9253 73.4393 59.0002 73.1024 59.1499 72.8403C59.2996 72.5409 59.543 72.3911 59.8799 72.3911C60.3291 72.3911 60.7035 72.597 61.0029 73.0088C61.3024 73.3831 61.5832 73.8511 61.8452 74.4126C62.2944 75.7228 62.6875 76.9769 63.0244 78.1748C63.3988 79.3353 63.7731 80.5519 64.1475 81.8247C64.5218 83.0975 64.9336 84.4639 65.3828 85.9238C65.832 87.3838 66.3748 89.0309 67.0112 90.8652C68.3963 94.8708 69.5755 98.165 70.5488 100.748C71.5596 103.294 72.0649 105.147 72.0649 106.307C72.0649 106.869 71.6906 107.318 70.9419 107.655C70.1932 107.992 68.7707 108.16 66.6743 108.16C64.8026 108.16 62.2944 108.16 59.1499 108.16C56.0054 108.16 52.5988 108.198 48.9302 108.272C45.2616 108.31 41.4993 108.385 37.6436 108.497C33.8252 108.609 30.3063 108.759 27.0869 108.946C24.4665 109.133 22.2017 109.358 20.2925 109.62C18.3833 109.845 16.6239 110.069 15.0142 110.294C13.4419 110.519 11.9258 110.724 10.4658 110.912C9.04329 111.061 7.48975 111.136 5.80518 111.136C4.64469 111.136 3.85856 111.024 3.44678 110.799C3.03499 110.537 2.8291 110.144 2.8291 109.62C2.8291 109.171 3.03499 108.853 3.44678 108.666C3.896 108.441 4.42008 108.272 5.01904 108.16C5.20622 108.123 5.618 108.067 6.25439 107.992C6.89079 107.917 7.60205 107.805 8.38818 107.655C9.21175 107.505 10.0728 107.318 10.9712 107.093C11.8696 106.869 12.6745 106.607 13.3857 106.307C15.1452 105.558 16.3618 104.342 17.0356 102.657C17.7095 100.973 18.14 98.8576 18.3271 96.312C18.4769 94.5151 18.5705 92.3065 18.6079 89.686C18.6828 87.0656 18.7202 84.2393 18.7202 81.207C18.7202 77.8379 18.7015 74.3752 18.6641 70.8188C18.6266 67.2625 18.5518 63.8747 18.4395 60.6553C18.3646 57.3984 18.271 54.4411 18.1587 51.7832C18.0838 49.0879 17.9902 46.8979 17.8779 45.2134C17.7656 43.5288 17.5785 42.0688 17.3164 40.8335C17.0918 39.5607 16.7923 38.4751 16.418 37.5767C16.0811 36.6782 15.6693 35.9482 15.1826 35.3867C14.7334 34.7878 14.228 34.2824 13.6665 33.8706C13.1424 33.4963 12.5247 33.1593 11.8135 32.8599C11.1022 32.5604 10.3535 32.3171 9.56738 32.1299C8.81868 31.9053 8.05127 31.7181 7.26514 31.5684C6.51644 31.4186 5.80518 31.2876 5.13135 31.1753C4.15804 31.0256 3.35319 30.8758 2.7168 30.7261C2.0804 30.5763 1.57503 30.4079 1.20068 30.2207C0.86377 30.0335 0.620443 29.8276 0.470703 29.603C0.358398 29.3784 0.302246 29.1351 0.302246 28.873C0.302246 28.1992 0.508138 27.7687 0.919922 27.5815C1.36914 27.3944 1.89323 27.3008 2.49219 27.3008ZM119.907 84.2393C120.431 85.1003 120.899 86.2607 121.311 87.7207C121.76 89.1807 121.984 90.6593 121.984 92.1567C121.984 94.8895 121.535 97.3415 120.637 99.5127C119.738 101.646 118.447 103.462 116.762 104.959C115.078 106.419 113.037 107.542 110.642 108.329C108.283 109.115 105.625 109.508 102.668 109.508C98.4004 109.508 94.582 108.797 91.2129 107.374C87.8812 105.914 85.0736 103.893 82.79 101.31C80.5065 98.7266 78.7658 95.6569 77.5679 92.1006C76.37 88.5068 75.771 84.5762 75.771 80.3086C75.771 76.4528 76.1828 72.9526 77.0063 69.8081C77.8299 66.6636 78.953 63.856 80.3755 61.3853C81.798 58.9146 83.4451 56.762 85.3169 54.9277C87.1886 53.0934 89.1727 51.5773 91.269 50.3794C93.3654 49.1815 95.4992 48.3018 97.6704 47.7402C99.8416 47.1413 101.938 46.8418 103.959 46.8418C105.944 46.8418 108.002 47.1038 110.136 47.6279C112.27 48.152 114.217 49.0505 115.976 50.3232C117.773 51.596 119.233 53.2806 120.356 55.377C121.516 57.4359 122.097 60.0376 122.097 63.1821C122.097 65.9149 121.685 68.3107 120.861 70.3696C120.075 72.4285 119.027 74.2067 117.717 75.7041C116.407 77.2015 114.909 78.4368 113.225 79.4102C111.577 80.3835 109.874 81.1696 108.115 81.7686C106.393 82.3301 104.689 82.7231 103.005 82.9478C101.358 83.1724 99.8978 83.2847 98.625 83.2847C96.7907 83.2847 94.9938 83.1536 93.2344 82.8916C91.5124 82.6296 90.1647 82.3488 89.1914 82.0493C89.3411 84.9692 89.7904 87.7956 90.5391 90.5283C91.3252 93.2236 92.4295 95.6007 93.8521 97.6597C95.2746 99.7186 97.034 101.366 99.1304 102.601C101.264 103.836 103.754 104.454 106.599 104.454C108.583 104.454 110.286 104.117 111.708 103.443C113.168 102.77 114.366 101.871 115.302 100.748C116.238 99.5876 116.931 98.2586 117.38 96.7612C117.829 95.2638 118.054 93.6916 118.054 92.0444C118.054 91.0711 117.979 90.0604 117.829 89.0122C117.717 87.964 117.492 86.972 117.155 86.0361C116.931 85.4746 116.743 84.9505 116.594 84.4639C116.444 83.9772 116.369 83.5841 116.369 83.2847C116.369 82.536 116.706 82.1616 117.38 82.1616C117.717 82.1616 118.11 82.3301 118.559 82.667C119.046 83.0039 119.495 83.528 119.907 84.2393ZM88.9668 78.3433C89.9401 78.6427 91.0444 78.9048 92.2798 79.1294C93.5151 79.3166 95.0687 79.4102 96.9404 79.4102C99.1117 79.4102 101.114 78.9984 102.949 78.1748C104.783 77.3512 106.355 76.2095 107.666 74.7495C108.976 73.2521 110.005 71.4552 110.754 69.3589C111.503 67.2625 111.877 64.9229 111.877 62.3398C111.877 60.0563 111.615 58.1471 111.091 56.6123C110.604 55.04 109.949 53.786 109.125 52.8501C108.302 51.9142 107.347 51.2591 106.262 50.8848C105.214 50.473 104.128 50.2671 103.005 50.2671C101.582 50.2671 100.048 50.6976 98.4004 51.5586C96.7533 52.4196 95.2184 53.917 93.7959 56.0508C92.4108 58.1846 91.2503 61.0671 90.3145 64.6982C89.416 68.292 88.9668 72.8403 88.9668 78.3433ZM126.42 53.187C127.281 52.8875 128.404 52.6068 129.79 52.3447C131.212 52.0452 132.578 51.7458 133.889 51.4463C136.547 50.8099 138.755 49.9489 140.515 48.8633C142.274 47.7777 143.753 46.4487 144.951 44.8765C146.186 43.2668 147.234 41.4325 148.095 39.3735C148.956 37.2772 149.817 34.9001 150.678 32.2422C151.427 29.9212 152.176 28.2928 152.924 27.3569C153.71 26.3836 154.571 25.897 155.507 25.897C156.368 25.897 156.967 26.2152 157.304 26.8516C157.641 27.488 157.81 28.3302 157.81 29.3784C157.81 30.3892 157.641 31.6994 157.304 33.3091C156.967 34.8813 156.574 36.5472 156.125 38.3066C155.713 40.0661 155.339 41.8068 155.002 43.5288C154.665 45.2134 154.497 46.6921 154.497 47.9648C154.497 48.5638 154.609 49.1066 154.833 49.5933C155.096 50.0425 155.601 50.2671 156.35 50.2671C156.799 50.2671 157.342 50.2297 157.978 50.1548C158.614 50.0799 159.288 50.005 160 49.9302C160.711 49.8553 161.441 49.7804 162.189 49.7056C162.976 49.6307 163.706 49.5933 164.379 49.5933C165.989 49.5933 166.794 50.0986 166.794 51.1094C166.794 51.6335 166.588 52.0078 166.176 52.2324C165.764 52.457 165.203 52.5693 164.492 52.5693C163.968 52.5693 163.331 52.5881 162.583 52.6255C161.834 52.6629 161.029 52.7565 160.168 52.9062C159.307 53.0186 158.446 53.187 157.585 53.4116C156.724 53.6362 155.919 53.9357 155.17 54.3101C154.122 54.8341 153.261 55.4893 152.587 56.2754C151.951 57.0615 151.427 57.8664 151.015 58.6899C150.379 60.0002 149.705 61.797 148.994 64.0806C148.282 66.3641 147.627 68.9097 147.028 71.7173C146.429 74.4875 145.924 77.4074 145.512 80.4771C145.138 83.5093 144.951 86.4479 144.951 89.293C144.951 93.2985 145.288 96.7425 145.961 99.625C146.635 102.47 147.571 104.828 148.769 106.7C149.967 108.572 151.389 109.957 153.037 110.855C154.684 111.716 156.462 112.147 158.371 112.147C159.868 112.147 161.141 111.941 162.189 111.529C163.238 111.08 164.099 110.519 164.772 109.845C165.446 109.133 165.933 108.366 166.232 107.542C166.532 106.681 166.682 105.839 166.682 105.016C166.682 104.005 166.401 103.163 165.839 102.489C165.315 101.778 164.716 101.104 164.042 100.467C163.369 99.8309 162.751 99.1383 162.189 98.3896C161.665 97.641 161.403 96.6676 161.403 95.4697C161.403 93.9723 161.871 92.7183 162.807 91.7075C163.78 90.6968 165.109 90.1914 166.794 90.1914C167.543 90.1914 168.254 90.3224 168.928 90.5845C169.639 90.8465 170.257 91.277 170.781 91.876C171.342 92.4749 171.792 93.2424 172.128 94.1782C172.465 95.0767 172.634 96.1623 172.634 97.4351C172.634 99.6437 172.297 101.852 171.623 104.061C170.949 106.232 169.882 108.198 168.422 109.957C166.962 111.679 165.072 113.083 162.751 114.168C160.43 115.292 157.604 115.853 154.272 115.853C150.528 115.853 147.159 115.086 144.165 113.551C141.17 111.979 138.774 109.863 136.977 107.206C135.367 104.735 134.188 101.946 133.439 98.8389C132.691 95.6943 132.316 92.5124 132.316 89.293C132.316 85.5495 132.597 81.937 133.159 78.4556C133.72 74.9367 134.338 71.7547 135.012 68.9097C135.686 66.0272 136.303 63.5565 136.865 61.4976C137.426 59.4012 137.707 57.8851 137.707 56.9492C137.707 56.2754 137.52 55.8636 137.146 55.7139C136.771 55.5641 136.266 55.4893 135.629 55.4893C135.255 55.4893 134.731 55.508 134.057 55.5454C133.421 55.5828 132.709 55.6203 131.923 55.6577C131.137 55.6951 130.314 55.7326 129.453 55.77C128.592 55.8075 127.768 55.8262 126.982 55.8262C125.597 55.8262 124.904 55.4331 124.904 54.647C124.904 54.0106 125.41 53.5239 126.42 53.187ZM188.918 21.5171C190.603 21.5171 192.212 21.8353 193.747 22.4717C195.282 23.0706 196.63 24.0252 197.79 25.3354C198.988 26.6457 199.943 28.349 200.654 30.4453C201.365 32.5417 201.721 35.0498 201.721 37.9697C201.721 40.5902 201.421 43.0047 200.822 45.2134C200.223 47.3846 199.456 49.3312 198.52 51.0532C197.584 52.7752 196.536 54.2913 195.375 55.6016C194.252 56.8743 193.111 57.9412 191.95 58.8022C190.827 59.6258 189.76 60.2622 188.75 60.7114C187.776 61.1232 186.99 61.3291 186.391 61.3291C186.092 61.3291 185.848 61.2729 185.661 61.1606C185.474 61.0483 185.38 60.8424 185.38 60.543C185.38 59.9814 185.811 59.3263 186.672 58.5776C187.533 57.8289 188.469 56.9867 189.479 56.0508C190.528 55.1149 191.482 54.1042 192.343 53.0186C193.204 51.8955 193.635 50.6789 193.635 49.3687C193.635 48.1707 193.279 47.1038 192.568 46.168C191.894 45.1947 191.033 44.2775 189.985 43.4165C188.937 42.5555 187.814 41.7132 186.616 40.8896C185.418 40.0286 184.295 39.1115 183.247 38.1382C182.198 37.1274 181.319 36.0231 180.607 34.8252C179.934 33.5898 179.597 32.1486 179.597 30.5015C179.597 27.8436 180.364 25.6911 181.899 24.0439C183.471 22.3594 185.811 21.5171 188.918 21.5171ZM241.027 42.0127C242.562 42.0127 243.854 42.0876 244.902 42.2373C245.987 42.387 246.905 42.5742 247.653 42.7988C248.439 42.986 249.113 43.1545 249.675 43.3042C250.236 43.4539 250.798 43.5288 251.359 43.5288C251.996 43.5288 252.482 43.1919 252.819 42.5181C253.194 41.8442 253.549 41.0207 253.886 40.0474C254.373 38.7371 254.953 38.082 255.627 38.082C256.226 38.082 256.6 38.2692 256.75 38.6436C256.937 39.0179 257.031 39.3735 257.031 39.7104C257.031 40.1597 256.975 40.6276 256.862 41.1143C256.787 41.5635 256.656 42.1624 256.469 42.9111C256.282 43.6598 256.057 44.5957 255.795 45.7188C255.571 46.8418 255.327 48.2456 255.065 49.9302C254.841 51.3153 254.654 52.5132 254.504 53.5239C254.392 54.5347 254.298 55.4331 254.223 56.2192C254.186 57.0054 254.13 57.7166 254.055 58.353C253.98 58.9894 253.886 59.6445 253.774 60.3184C253.549 61.7409 253.063 62.4521 252.314 62.4521C251.827 62.4521 251.509 62.2275 251.359 61.7783C251.21 61.2917 251.135 60.7676 251.135 60.2061V55.8262C251.135 53.6175 250.873 51.7645 250.349 50.2671C249.862 48.7697 249.169 47.5718 248.271 46.6733C247.41 45.7749 246.362 45.1385 245.126 44.7642C243.929 44.3898 242.637 44.2026 241.252 44.2026C240.017 44.2026 238.819 44.4085 237.658 44.8203C236.535 45.2321 235.543 45.8498 234.682 46.6733C233.821 47.4595 233.129 48.4328 232.604 49.5933C232.08 50.7537 231.818 52.064 231.818 53.5239C231.818 55.4331 232.268 57.2861 233.166 59.083C234.064 60.8799 235.244 62.6393 236.704 64.3613C238.164 66.0833 239.811 67.8241 241.645 69.5835C243.517 71.3055 245.426 73.0837 247.373 74.918C249.357 76.7523 251.266 78.6615 253.1 80.6455C254.972 82.6296 256.638 84.7446 258.098 86.9907C259.558 89.1994 260.737 91.5578 261.635 94.0659C262.534 96.5741 262.983 99.2694 262.983 102.152C262.983 106.008 262.384 109.433 261.186 112.428C259.988 115.385 258.378 117.875 256.357 119.896C254.335 121.917 251.977 123.452 249.282 124.5C246.586 125.549 243.723 126.073 240.69 126.073C238.594 126.073 236.629 125.848 234.794 125.399C232.998 124.95 231.332 124.369 229.797 123.658C228.299 122.947 226.952 122.123 225.754 121.188C224.556 120.289 223.545 119.391 222.722 118.492C221.187 116.77 219.877 115.46 218.791 114.562C217.705 113.663 216.526 113.214 215.253 113.214C214.58 113.214 213.85 113.457 213.063 113.944C212.277 114.431 211.491 114.955 210.705 115.516C209.956 116.078 209.245 116.602 208.571 117.088C207.897 117.575 207.336 117.818 206.887 117.818C206.475 117.818 206.175 117.687 205.988 117.425C205.801 117.201 205.708 116.976 205.708 116.751C205.708 116.302 205.988 115.816 206.55 115.292C206.774 115.067 207.205 114.655 207.841 114.056C208.515 113.457 209.339 112.671 210.312 111.698C211.285 110.724 212.371 109.527 213.569 108.104C214.804 106.681 216.096 105.034 217.443 103.163C218.716 101.403 219.764 99.756 220.588 98.2212C221.411 96.6489 222.123 95.3013 222.722 94.1782C223.321 93.0177 223.845 92.1006 224.294 91.4268C224.781 90.7529 225.305 90.416 225.866 90.416C226.428 90.416 226.783 90.5845 226.933 90.9214C227.12 91.2583 227.214 91.6326 227.214 92.0444C227.214 92.606 227.008 93.3359 226.596 94.2344C226.184 95.1328 225.735 96.2184 225.249 97.4912C224.799 98.764 224.369 100.243 223.957 101.927C223.545 103.612 223.339 105.521 223.339 107.655C223.339 108.89 223.583 110.331 224.069 111.979C224.556 113.626 225.342 115.179 226.428 116.639C227.513 118.099 228.936 119.334 230.695 120.345C232.492 121.393 234.663 121.917 237.209 121.917C239.23 121.917 241.046 121.543 242.656 120.794C244.303 120.046 245.707 118.979 246.867 117.594C248.028 116.246 248.907 114.636 249.506 112.765C250.143 110.855 250.461 108.74 250.461 106.419C250.461 103.462 249.768 100.617 248.383 97.8843C246.998 95.1141 245.257 92.4188 243.161 89.7983C241.065 87.1405 238.8 84.5387 236.367 81.9932C233.933 79.4476 231.669 76.9207 229.572 74.4126C227.476 71.867 225.735 69.3215 224.35 66.7759C222.965 64.2303 222.272 61.6473 222.272 59.0269C222.272 56.1069 222.815 53.5801 223.901 51.4463C224.986 49.2751 226.409 47.4969 228.168 46.1118C229.965 44.7267 231.968 43.6973 234.177 43.0234C236.423 42.3496 238.706 42.0127 241.027 42.0127ZM323.627 17.1934C324.488 17.1934 325.2 17.4554 325.761 17.9795C326.36 18.4661 326.66 19.4207 326.66 20.8433C326.66 21.854 326.529 23.1829 326.267 24.8301C326.005 26.4398 325.705 28.0682 325.368 29.7153C325.031 31.3625 324.694 32.8786 324.357 34.2637C324.058 35.6113 323.852 36.5472 323.74 37.0713C323.665 37.4082 323.515 37.9884 323.291 38.812C323.103 39.6356 322.841 40.5527 322.504 41.5635C322.205 42.5742 321.868 43.6224 321.494 44.708C321.157 45.7936 320.801 46.7856 320.427 47.6841C320.052 48.5825 319.678 49.3312 319.304 49.9302C318.967 50.4917 318.649 50.7725 318.349 50.7725C318.162 50.7725 317.993 50.6789 317.844 50.4917C317.731 50.3045 317.675 49.8927 317.675 49.2563C317.675 48.62 317.731 47.7402 317.844 46.6172C317.956 45.4567 318.068 44.1839 318.181 42.7988C318.293 41.3763 318.405 39.9163 318.518 38.4189C318.63 36.8841 318.686 35.4429 318.686 34.0952C318.686 32.0363 318.461 30.4266 318.012 29.2661C317.6 28.0682 316.983 27.1698 316.159 26.5708C315.373 25.9344 314.4 25.5413 313.239 25.3916C312.116 25.2044 310.862 25.1108 309.477 25.1108C307.643 25.1108 305.603 25.2419 303.356 25.5039C301.148 25.7285 299.051 26.1029 297.067 26.627C295.42 27.0387 294.335 27.75 293.811 28.7607C293.324 29.7715 293.081 31.0817 293.081 32.6914C293.081 32.9535 293.099 34.0016 293.137 35.8359C293.174 37.6702 293.23 40.0286 293.305 42.9111C293.38 45.7936 293.455 49.1066 293.53 52.8501C293.642 56.5562 293.754 60.4119 293.867 64.4175C294.915 64.3426 295.982 64.249 297.067 64.1367C298.153 63.987 299.07 63.7437 299.819 63.4067C300.605 63.0698 301.26 62.6393 301.784 62.1152C302.346 61.5537 302.795 60.9735 303.132 60.3745C303.469 59.7381 303.731 59.1017 303.918 58.4653C304.143 57.8289 304.311 57.2487 304.423 56.7246C305.022 54.3288 305.49 52.6442 305.827 51.6709C306.164 50.6602 306.613 50.1548 307.175 50.1548C307.886 50.1548 308.242 50.8473 308.242 52.2324C308.242 52.9062 308.167 53.7111 308.017 54.647C307.867 55.5828 307.68 56.6497 307.456 57.8477C307.268 59.0081 307.1 60.2996 306.95 61.7222C306.8 63.1447 306.726 64.6608 306.726 66.2705C306.726 67.7305 306.744 69.2279 306.782 70.7627C306.857 72.2975 306.931 73.7201 307.006 75.0303C307.081 76.3405 307.137 77.5197 307.175 78.5679C307.25 79.5786 307.287 80.3086 307.287 80.7578C307.287 82.0306 307.156 82.9852 306.894 83.6216C306.669 84.258 306.351 84.5762 305.939 84.5762C305.49 84.5762 305.116 84.2393 304.816 83.5654C304.517 82.8542 304.348 81.5065 304.311 79.5225C304.274 78.0625 304.18 76.7336 304.03 75.5356C303.918 74.3003 303.675 73.2334 303.3 72.335C302.963 71.3991 302.477 70.6317 301.84 70.0327C301.204 69.3963 300.38 68.9097 299.37 68.5728C298.733 68.3856 297.91 68.2733 296.899 68.2358C295.926 68.161 294.952 68.1235 293.979 68.1235C294.091 72.1291 294.204 76.1159 294.316 80.084C294.466 84.0521 294.597 87.7394 294.709 91.146C294.821 94.5151 294.934 97.4725 295.046 100.018C295.158 102.564 295.252 104.417 295.327 105.577C295.439 107.374 295.664 108.834 296 109.957C296.337 111.043 296.787 111.922 297.348 112.596C297.91 113.27 298.565 113.775 299.313 114.112C300.062 114.449 300.923 114.749 301.896 115.011C302.233 115.123 302.608 115.217 303.02 115.292C303.431 115.366 303.824 115.479 304.199 115.628C304.611 115.778 304.947 115.947 305.209 116.134C305.472 116.358 305.603 116.639 305.603 116.976C305.603 117.313 305.49 117.575 305.266 117.762C305.078 117.949 304.816 118.08 304.479 118.155C304.18 118.268 303.843 118.324 303.469 118.324C303.132 118.361 302.795 118.38 302.458 118.38C301.896 118.38 301.11 118.305 300.1 118.155C299.089 118.043 297.928 117.912 296.618 117.762C295.308 117.65 293.904 117.519 292.407 117.369C290.909 117.257 289.393 117.201 287.858 117.201C286.473 117.201 285.144 117.238 283.872 117.313C282.599 117.425 281.289 117.538 279.941 117.65C278.593 117.8 277.189 117.912 275.729 117.987C274.27 118.099 272.679 118.155 270.957 118.155C269.908 118.155 269.066 118.099 268.43 117.987C267.793 117.875 267.307 117.725 266.97 117.538C266.633 117.388 266.408 117.201 266.296 116.976C266.184 116.751 266.127 116.527 266.127 116.302C266.127 115.441 266.82 114.898 268.205 114.674C268.542 114.636 269.085 114.58 269.833 114.505C270.582 114.468 271.406 114.412 272.304 114.337C273.24 114.262 274.195 114.15 275.168 114C276.141 113.888 277.002 113.738 277.751 113.551C278.537 113.326 279.323 113.027 280.109 112.652C280.896 112.241 281.588 111.698 282.187 111.024C282.786 110.313 283.273 109.396 283.647 108.272C284.021 107.112 284.208 105.652 284.208 103.893C284.208 100.898 284.077 97.4538 283.815 93.5605C283.591 89.6673 283.273 85.6243 282.861 81.4316C282.486 77.2015 282.037 72.9714 281.513 68.7412C281.027 64.4736 280.502 60.4494 279.941 56.6685C279.417 52.8501 278.893 49.4435 278.369 46.4487C277.845 43.4165 277.377 41.0207 276.965 39.2612C276.628 37.8387 276.141 36.6969 275.505 35.8359C274.868 34.9375 274.139 34.245 273.315 33.7583C272.529 33.2342 271.649 32.8599 270.676 32.6353C269.74 32.3732 268.767 32.1673 267.756 32.0176C266.67 31.8304 265.791 31.5871 265.117 31.2876C264.48 30.9881 264.162 30.5015 264.162 29.8276C264.162 29.1912 264.405 28.7607 264.892 28.5361C265.416 28.3115 266.034 28.1992 266.745 28.1992C269.927 28.1992 273.914 27.9746 278.706 27.5254C283.497 27.0762 288.925 26.159 294.99 24.7739C299.669 23.7257 303.581 22.7337 306.726 21.7979C309.908 20.862 312.565 20.0571 314.699 19.3833C316.833 18.7095 318.574 18.1854 319.921 17.811C321.306 17.3993 322.542 17.1934 323.627 17.1934ZM348.952 49.9302C351.011 49.9302 352.864 50.2484 354.511 50.8848C356.196 51.4837 357.6 52.3447 358.723 53.4678C359.883 54.5534 360.763 55.8636 361.362 57.3984C361.998 58.9333 362.316 60.6178 362.316 62.4521C362.316 65.5218 361.886 68.2358 361.025 70.5942C360.201 72.9152 359.097 74.9554 357.712 76.7148C356.364 78.4368 354.811 79.8968 353.051 81.0947C351.329 82.2552 349.589 83.2285 347.829 84.0146C346.07 84.7633 344.366 85.3436 342.719 85.7554C341.11 86.1672 339.706 86.4666 338.508 86.6538C339.481 89.3491 340.81 91.745 342.495 93.8413C344.179 95.9002 346.126 97.641 348.334 99.0635C350.543 100.449 352.976 101.515 355.634 102.264C358.292 102.975 361.1 103.331 364.057 103.331C366.266 103.331 368.362 103.163 370.346 102.826C367.651 99.5314 365.686 95.8066 364.45 91.6514C363.252 87.4587 362.653 83.2098 362.653 78.9048C362.653 73.9634 363.327 69.6022 364.675 65.8213C366.06 62.0404 367.894 58.8771 370.178 56.3315C372.461 53.786 375.1 51.8581 378.095 50.5479C381.127 49.2376 384.291 48.5825 387.585 48.5825C390.093 48.5825 392.377 48.9756 394.436 49.7617C396.494 50.5479 398.254 51.7083 399.714 53.2432C401.174 54.7406 402.297 56.6123 403.083 58.8584C403.869 61.0671 404.262 63.6126 404.262 66.4951C404.262 69.8643 403.794 73.2334 402.858 76.6025C401.923 79.9717 400.575 83.1911 398.815 86.2607C397.056 89.3304 394.885 92.1942 392.302 94.8521C389.719 97.5099 386.78 99.7935 383.486 101.703C385.32 103.425 387.398 104.735 389.719 105.633C392.077 106.532 394.585 106.981 397.243 106.981C399.414 106.981 401.23 106.607 402.69 105.858C404.15 105.072 405.329 104.098 406.228 102.938C407.126 101.778 407.762 100.505 408.137 99.1196C408.549 97.6971 408.754 96.3307 408.754 95.0205C408.754 93.5231 408.567 92.2129 408.193 91.0898C407.856 89.9294 407.463 88.9373 407.014 88.1138C406.602 87.2528 406.209 86.5415 405.834 85.98C405.498 85.381 405.329 84.8757 405.329 84.4639C405.329 83.9772 405.554 83.7339 406.003 83.7339C406.602 83.7339 407.276 84.0334 408.024 84.6323C408.811 85.1938 409.541 85.9987 410.214 87.0469C410.888 88.0576 411.45 89.2555 411.899 90.6406C412.348 92.0257 412.573 93.5231 412.573 95.1328C412.573 97.641 412.18 99.9993 411.394 102.208C410.645 104.417 409.503 106.345 407.968 107.992C406.471 109.639 404.58 110.949 402.297 111.922C400.051 112.858 397.412 113.326 394.379 113.326C389.737 113.326 385.694 112.671 382.25 111.361C378.806 110.013 375.83 108.216 373.322 105.97C369.317 107.093 364.956 107.655 360.239 107.655C357.431 107.655 354.605 107.411 351.76 106.925C348.952 106.401 346.219 105.615 343.562 104.566C340.941 103.481 338.489 102.114 336.206 100.467C333.922 98.8201 331.938 96.8735 330.253 94.6274C328.569 92.3813 327.24 89.8171 326.267 86.9346C325.293 84.0146 324.807 80.7765 324.807 77.2202C324.807 72.6532 325.537 68.6663 326.997 65.2598C328.457 61.8158 330.347 58.9707 332.668 56.7246C334.989 54.4411 337.572 52.7378 340.417 51.6147C343.299 50.4917 346.145 49.9302 348.952 49.9302ZM374.277 75.8164C374.277 80.7952 374.857 85.2126 376.018 89.0684C377.178 92.9242 378.825 96.2184 380.959 98.9512C383.168 97.6035 385.096 96.0125 386.743 94.1782C388.39 92.3439 389.812 90.416 391.01 88.3945C392.246 86.373 393.256 84.2954 394.042 82.1616C394.829 80.0278 395.465 77.9689 395.952 75.9849C396.438 74.0008 396.775 72.1478 396.962 70.4258C397.15 68.6663 397.243 67.1689 397.243 65.9336C397.243 63.388 396.981 61.2168 396.457 59.4199C395.97 57.5856 395.297 56.0882 394.436 54.9277C393.575 53.7673 392.545 52.925 391.347 52.4009C390.149 51.8394 388.858 51.5586 387.473 51.5586C385.826 51.5586 384.197 52.0265 382.587 52.9624C381.015 53.8608 379.611 55.3021 378.376 57.2861C377.141 59.2327 376.149 61.7409 375.4 64.8105C374.651 67.8802 374.277 71.5488 374.277 75.8164ZM336.767 75.5918C336.767 77.2015 336.842 78.755 336.992 80.2524C337.179 81.7498 337.46 83.1536 337.834 84.4639C340.454 83.9398 342.719 83.2285 344.628 82.3301C346.575 81.3942 348.203 80.3273 349.514 79.1294C350.824 77.9315 351.891 76.64 352.714 75.2549C353.538 73.8698 354.174 72.466 354.624 71.0435C355.073 69.5835 355.372 68.1423 355.522 66.7197C355.672 65.2972 355.747 63.9683 355.747 62.7329C355.747 61.4601 355.634 60.2435 355.41 59.083C355.185 57.8851 354.792 56.8369 354.23 55.9385C353.706 55.04 353.014 54.3288 352.153 53.8047C351.329 53.2432 350.3 52.9624 349.064 52.9624C347.118 52.9624 345.377 53.5614 343.842 54.7593C342.307 55.9572 341.016 57.5856 339.968 59.6445C338.92 61.666 338.115 64.0618 337.553 66.832C337.029 69.5648 336.767 72.4847 336.767 75.5918ZM465.693 0.0107422C465.992 0.0107422 466.18 0.291504 466.254 0.853027C466.367 1.37712 466.423 2.1071 466.423 3.04297C466.423 5.96289 466.385 9.12614 466.311 12.5327C466.273 15.9019 466.217 19.4395 466.142 23.1455C466.067 26.8141 465.974 30.5951 465.861 34.4883C465.786 38.3441 465.693 42.1999 465.581 46.0557C465.468 51.4837 465.356 56.7808 465.244 61.9468C465.131 67.1128 465.038 71.867 464.963 76.2095C464.888 80.5145 464.813 84.2767 464.738 87.4961C464.701 90.7155 464.682 93.1113 464.682 94.6836C464.682 96.4805 464.832 97.9591 465.131 99.1196C465.431 100.28 465.824 101.235 466.311 101.983C466.797 102.695 467.359 103.237 467.995 103.612C468.669 103.986 469.361 104.304 470.073 104.566C471.009 104.903 471.907 105.147 472.768 105.296C473.667 105.409 474.453 105.502 475.126 105.577C475.8 105.652 476.324 105.764 476.699 105.914C477.111 106.064 477.316 106.345 477.316 106.756C477.316 107.318 476.905 107.674 476.081 107.823C475.295 107.973 474.453 108.048 473.554 108.048C472.281 108.048 470.522 107.954 468.276 107.767C466.03 107.542 463.447 107.43 460.527 107.43C459.104 107.43 457.682 107.505 456.259 107.655C454.837 107.805 453.321 107.973 451.711 108.16C450.139 108.31 448.398 108.46 446.489 108.609C444.617 108.759 442.483 108.834 440.087 108.834C436.718 108.834 433.555 108.422 430.598 107.599C427.64 106.775 425.057 105.484 422.849 103.724C420.64 101.927 418.899 99.625 417.626 96.8174C416.354 93.9723 415.717 90.547 415.717 86.5415C415.717 82.9852 416.354 79.8219 417.626 77.0518C418.937 74.2441 420.696 71.8857 422.905 69.9766C425.151 68.0674 427.753 66.6074 430.71 65.5967C433.705 64.5859 436.868 64.0806 440.2 64.0806C443.681 64.0806 446.582 64.3613 448.903 64.9229C451.262 65.4844 453.152 66.0459 454.575 66.6074C454.575 63.0137 454.537 59.3638 454.462 55.6577C454.388 51.9142 454.294 48.283 454.182 44.7642C454.107 41.2078 454.013 37.8574 453.901 34.7129C453.826 31.5684 453.732 28.7982 453.62 26.4023C453.545 24.0065 453.47 22.0599 453.396 20.5625C453.321 19.0651 453.283 18.2041 453.283 17.9795C453.246 17.418 453.19 16.8752 453.115 16.3511C453.077 15.7896 452.984 15.3029 452.834 14.8911C452.722 14.4419 452.535 14.105 452.272 13.8804C452.01 13.6183 451.655 13.4873 451.206 13.4873C450.644 13.4873 450.008 13.6183 449.296 13.8804C448.585 14.105 447.855 14.367 447.106 14.6665C446.395 14.9285 445.684 15.1906 444.973 15.4526C444.261 15.6772 443.625 15.7896 443.063 15.7896C442.727 15.7896 442.408 15.7334 442.109 15.6211C441.809 15.4714 441.66 15.1906 441.66 14.7788C441.66 14.2922 441.828 13.8991 442.165 13.5996C442.539 13.3001 443.063 13.0007 443.737 12.7012C444.224 12.4766 444.785 12.2707 445.422 12.0835C446.058 11.8589 446.826 11.5594 447.724 11.1851C448.66 10.7733 449.764 10.2679 451.037 9.66895C452.31 9.03255 453.826 8.19027 455.585 7.14209C457.307 6.13135 458.749 5.19548 459.909 4.33447C461.107 3.47347 462.08 2.72477 462.829 2.08838C463.615 1.45199 464.214 0.946615 464.626 0.572266C465.075 0.197917 465.431 0.0107422 465.693 0.0107422ZM455.024 92.9429C455.024 91.2957 455.005 89.5176 454.968 87.6084C454.968 85.6618 454.949 83.6965 454.912 81.7124C454.912 79.6909 454.874 77.6882 454.799 75.7041C454.762 73.7201 454.724 71.8483 454.687 70.0889C453.527 69.4899 452.104 69.0033 450.419 68.6289C448.735 68.2171 446.863 68.0112 444.804 68.0112C442.296 68.0112 440.087 68.4417 438.178 69.3027C436.269 70.1637 434.659 71.3804 433.349 72.9526C432.039 74.5249 431.047 76.4154 430.373 78.624C429.699 80.8327 429.362 83.3034 429.362 86.0361C429.362 88.9561 429.681 91.6139 430.317 94.0098C430.953 96.3682 431.889 98.3896 433.125 100.074C434.397 101.759 435.988 103.069 437.897 104.005C439.807 104.903 442.034 105.353 444.58 105.353C446.751 105.353 448.529 105.016 449.914 104.342C451.337 103.631 452.422 102.751 453.171 101.703C453.92 100.654 454.406 99.4004 454.631 97.9404C454.893 96.4805 455.024 94.8146 455.024 92.9429Z" fill="#FFC703"/>
</svg>
